<svg width="37" height="37" viewBox="0 0 37 37" fill="none" xmlns="http://www.w3.org/2000/svg">
<path d="M17.1341 16.1207L13.0069 20.248L9.0599 16.2964C8.91683 16.1529 8.83649 15.9584 8.83649 15.7557C8.83649 15.5531 8.91683 15.3586 9.0599 15.2151L12.1013 12.1737C12.2448 12.0306 12.4392 11.9503 12.6419 11.9503C12.8446 11.9503 13.0391 12.0306 13.1827 12.1737L17.1341 16.1207Z" fill="#55768B"/>
<path d="M18.8568 17.8432L22.9796 21.9704L19.393 25.5525C19.3584 25.5905 19.319 25.6238 19.2758 25.6516C19.1274 25.7436 18.9528 25.7837 18.7791 25.7657C18.6054 25.7478 18.4426 25.6728 18.3162 25.5525L14.7296 21.9704L18.8568 17.8432Z" fill="#55768B"/>
<path d="M28.6471 15.2161C28.7909 15.3594 28.8719 15.5539 28.8724 15.7568C28.8727 15.8574 28.8529 15.957 28.8142 16.0499C28.7756 16.1427 28.7187 16.2269 28.6471 16.2975L24.7001 20.249L20.5728 16.1218L24.5243 12.1748C24.6701 12.0359 24.8638 11.9585 25.0651 11.9585C25.2664 11.9585 25.46 12.0359 25.6057 12.1748L28.6471 15.2161Z" fill="#55768B"/>
<path d="M28.5741 0.590059H8.73993C7.66738 0.589408 6.60518 0.800107 5.61408 1.21012C4.62299 1.62013 3.7224 2.22142 2.96378 2.97962C2.20516 3.73783 1.60334 4.63808 1.19278 5.62895C0.782223 6.61982 0.570986 7.68188 0.571045 8.75444V28.0119C0.570986 29.0845 0.782223 30.1465 1.19278 31.1374C1.60334 32.1283 2.20516 33.0285 2.96378 33.7867C3.7224 34.5449 4.62299 35.1462 5.61408 35.5562C6.60518 35.9663 7.66738 36.177 8.73993 36.1763H28.5741C29.6467 36.177 30.7089 35.9663 31.7 35.5562C32.6911 35.1462 33.5916 34.5449 34.3503 33.7867C35.1089 33.0285 35.7106 32.1283 36.1212 31.1374C36.5318 30.1465 36.7431 29.0845 36.743 28.0119V8.75444C36.7431 7.68188 36.5318 6.61982 36.1212 5.62895C35.7106 4.63808 35.1089 3.73783 34.3503 2.97962C33.5916 2.22142 32.6911 1.62013 31.7 1.21012C30.7089 0.800107 29.6467 0.589408 28.5741 0.590059ZM30.3674 18.0182L25.5733 22.8168L25.5598 22.8303L21.1172 27.273C20.8206 27.5707 20.4681 27.8068 20.0799 27.9677C19.6917 28.1285 19.2755 28.2109 18.8553 28.2102C18.3613 28.2106 17.8739 28.0964 17.4314 27.8768C17.4089 27.8632 17.3819 27.8542 17.3593 27.8407C17.3188 27.8182 17.2783 27.7956 17.2422 27.7731C17.0035 27.6357 16.7838 27.4676 16.5889 27.273L12.1462 22.8303C12.1417 22.8258 12.1417 22.8213 12.1372 22.8168L7.3386 18.0182C7.04185 17.7215 6.80646 17.3692 6.64586 16.9815C6.48526 16.5938 6.40259 16.1783 6.40259 15.7586C6.40259 15.3389 6.48526 14.9234 6.64586 14.5357C6.80646 14.148 7.04185 13.7957 7.3386 13.499V13.4945L10.38 10.4531C10.9799 9.85329 11.7935 9.51632 12.6419 9.51632C13.4902 9.51632 14.3038 9.85329 14.9037 10.4531L18.8553 14.4001L22.8023 10.4531C23.0986 10.155 23.451 9.91867 23.8393 9.75779C24.2276 9.59692 24.6439 9.5147 25.0642 9.51591C25.4844 9.51515 25.9006 9.59757 26.2888 9.75842C26.677 9.91927 27.0295 10.1554 27.3261 10.4531L30.3674 13.4945C30.6648 13.7913 30.9007 14.1438 31.0615 14.532C31.2223 14.9201 31.3049 15.3362 31.3046 15.7563C31.3058 16.1766 31.2236 16.593 31.0627 16.9812C30.9018 17.3695 30.6655 17.722 30.3674 18.0182Z" fill="#55768B"/>
</svg>
