<svg width="30" height="30" viewBox="0 0 30 30" fill="none" xmlns="http://www.w3.org/2000/svg">
<path fill-rule="evenodd" clip-rule="evenodd" d="M18.7489 6.25199C18.7173 6.1999 18.6885 6.15348 18.6659 6.11705L18.6658 6.11681L18.6656 6.11652L18.6653 6.11612L18.6652 6.11593C18.6437 6.08121 18.6279 6.0557 18.6207 6.04322C17.3547 3.92347 15.8113 1.98225 14.0315 0.270972C13.9508 0.194025 13.8861 0.101948 13.8411 0C13.841 2.79854e-06 13.841 5.54958e-06 13.8409 8.34848e-06C10.7814 0.19808 7.85984 1.34522 5.4829 3.2817C6.02457 3.54074 6.48228 3.94717 6.80359 4.45438C7.12489 4.9616 7.29678 5.54909 7.29955 6.14951C7.29993 6.41006 7.26795 6.66965 7.20433 6.92232C7.05983 7.48402 6.76476 7.99563 6.35094 8.402C5.72991 9.01297 4.89271 9.35391 4.02153 9.35061C3.55004 9.35166 3.08372 9.25225 2.65365 9.059C2.22357 8.86575 1.83961 8.5831 1.52731 8.22986C0.844712 9.60787 0.38367 11.0849 0.161173 12.6065C0.161211 12.6066 0.161248 12.6066 0.161286 12.6066C0.311766 12.6641 0.440041 12.768 0.527545 12.9033C1.94496 15.0349 3.91176 16.694 6.01408 18.4264C6.32753 18.0562 6.71801 17.7589 7.15827 17.5552C7.59856 17.3515 8.07802 17.2464 8.56315 17.2472C9.00335 17.2468 9.43931 17.3332 9.84608 17.5015C10.2529 17.6698 10.6224 17.9166 10.9337 18.2279C11.245 18.5391 11.4918 18.9087 11.6601 19.3155C11.8284 19.7223 11.9148 20.1582 11.9144 20.5984C11.9145 21.0386 11.8279 21.4744 11.6595 21.881C11.4911 22.2877 11.2443 22.6572 10.9331 22.9684C10.6219 23.2796 10.2524 23.5264 9.84574 23.6948C9.4391 23.8632 9.00327 23.9498 8.56315 23.9497C8.00635 23.9503 7.45839 23.8105 6.96995 23.5432C6.45483 24.4305 6.0256 25.3651 5.68809 26.334C5.67846 26.3672 5.66494 26.3992 5.64781 26.4292C5.64779 26.4293 5.64778 26.4293 5.64776 26.4293C8.26023 28.4929 11.4933 29.6132 14.8225 29.6084C17.029 29.6117 19.208 29.1198 21.1991 28.169C20.5748 27.757 20.1037 27.1507 19.8586 26.4439C19.8586 26.4439 19.8586 26.4439 19.8586 26.4439C17.9614 26.1399 15.6174 25.7553 13.7056 25.0191C13.5017 24.9402 13.3372 24.7839 13.248 24.5843C13.1589 24.3846 13.1522 24.1579 13.2294 23.9533C13.2683 23.8517 13.3268 23.7588 13.4016 23.6799C13.4764 23.601 13.566 23.5376 13.6654 23.4933C13.7647 23.4491 13.8718 23.4249 13.9805 23.4221C14.0892 23.4194 14.1974 23.4381 14.2989 23.4772C15.9214 24.0998 17.9687 24.4624 19.7084 24.7444C19.8253 23.9501 20.222 23.2237 20.827 22.6959C21.432 22.1681 22.2056 21.8737 23.0084 21.8657H23.0157C23.5758 21.8654 24.1266 22.0078 24.6163 22.2796C25.3864 22.7113 25.9598 23.4238 26.2169 24.2684C28.4367 21.609 29.6502 18.2536 29.645 14.7896C29.6485 12.2156 28.9793 9.68544 27.7039 7.44972C27.6373 7.49247 27.5644 7.52458 27.4879 7.54489C26.2482 7.87733 25.0269 8.27466 23.829 8.73524C23.802 8.17424 23.6318 7.62951 23.3345 7.15299C24.4113 6.73548 25.781 6.30331 26.7772 6.02495C25.5316 4.3249 23.9375 2.91031 22.1014 1.87572C20.2653 0.841163 18.2296 0.210425 16.1302 0.0256648C17.6068 1.60071 18.9119 3.32813 20.0235 5.17885C20.0477 5.21519 20.1396 5.36175 20.2473 5.53359L20.2475 5.53385L20.3165 5.644C19.8192 5.69217 19.3418 5.85923 18.9241 6.12976C19.3418 5.85927 19.8191 5.69224 20.3164 5.64407C20.4208 5.63057 20.5261 5.62444 20.6314 5.62575C21.1751 5.62705 21.7094 5.76822 22.1828 6.03571C22.6561 6.30319 23.0527 6.68797 23.3344 7.15306C23.6317 7.62957 23.8019 8.17431 23.8288 8.7353C23.8325 8.79024 23.8325 8.84884 23.8325 8.90378C23.8426 9.76292 23.511 10.5909 22.9107 11.2056C22.3104 11.8203 21.4905 12.1715 20.6314 12.1818C19.8373 12.1805 19.0727 11.8812 18.4888 11.3431C16.4875 12.7066 14.6351 14.2767 12.962 16.0275C12.8854 16.1089 12.7929 16.1736 12.6902 16.2177C12.5875 16.2618 12.4768 16.2843 12.365 16.2839C12.1524 16.285 11.9475 16.2036 11.7937 16.0568C11.635 15.9057 11.5428 15.6977 11.5373 15.4787C11.5318 15.2596 11.6135 15.0473 11.7644 14.8884C13.5293 13.0437 15.4837 11.3901 17.5951 9.95498C17.5951 9.95497 17.5951 9.95496 17.5951 9.95494C17.4829 9.61587 17.426 9.26094 17.4266 8.90378C17.4249 8.38928 17.5436 7.88153 17.7732 7.4211C18.0028 6.96067 18.3369 6.56032 18.7488 6.25206C18.7489 6.25204 18.7489 6.25201 18.7489 6.25199ZM4.31824 25.2463C4.31826 25.2463 4.31827 25.2462 4.31828 25.2462C4.70887 24.2555 5.18303 23.2998 5.73564 22.3895C5.73564 22.3895 5.73563 22.3895 5.73562 22.3895C5.39189 21.8555 5.21 21.2335 5.21188 20.5984C5.21211 20.3634 5.23665 20.129 5.2851 19.899L5.25229 19.9391L5.19273 19.8899C3.36575 18.382 1.50014 16.8422 0.0001308 14.9763V14.9726C8.71994e-05 14.9726 4.35995e-05 14.9725 0 14.9725V14.9764C0.0445096 18.8319 1.59415 22.5174 4.3182 25.2463C4.31822 25.2463 4.31823 25.2463 4.31824 25.2463ZM24.6164 22.2795C24.6458 22.1934 24.6607 22.103 24.6604 22.0121C24.6707 19.5499 24.4141 17.0938 23.8949 14.6869C23.8719 14.581 23.8283 14.4807 23.7665 14.3917C23.7047 14.3027 23.626 14.2268 23.5348 14.1683C23.4436 14.1098 23.3418 14.0698 23.2352 14.0507C23.1285 14.0316 23.0191 14.0337 22.9133 14.0569C22.8072 14.0801 22.7066 14.124 22.6175 14.1861C22.5284 14.2482 22.4523 14.3273 22.3938 14.4188C22.3353 14.5103 22.2954 14.6125 22.2765 14.7195C22.2575 14.8264 22.2598 14.9361 22.2834 15.0422C22.7634 17.285 23.0065 19.572 23.0086 21.8656H23.0159C23.5759 21.8652 24.1268 22.0077 24.6164 22.2795ZM15.1231 8.95138C15.112 9.16167 15.0208 9.35973 14.8682 9.50483C14.7156 9.64993 14.5132 9.73106 14.3027 9.73152C14.2979 9.73152 14.2933 9.73127 14.289 9.7309C14.2846 9.73052 14.2803 9.73002 14.2762 9.72953C14.2689 9.72867 14.262 9.72785 14.255 9.72785C11.5982 9.55395 8.9652 9.11594 6.39511 8.42031C6.37933 8.4174 6.36434 8.41116 6.35116 8.40199C6.76499 7.99562 7.06006 7.48401 7.20455 6.92231C9.5426 7.5363 11.9343 7.92388 14.3466 8.07968C14.4549 8.08581 14.5609 8.11323 14.6585 8.16038C14.7562 8.20753 14.8436 8.27347 14.9157 8.35445C14.9878 8.43542 15.0433 8.52982 15.0789 8.63225C15.1144 8.73469 15.1295 8.84313 15.1231 8.95138Z" fill="#55768B"/>
<path opacity="0.4" fill-rule="evenodd" clip-rule="evenodd" d="M7.20435 6.92226C7.26798 6.66959 7.29996 6.41 7.29957 6.14945C7.2968 5.54903 7.12491 4.96154 6.80361 4.45432C6.48231 3.94711 6.02459 3.54068 5.48293 3.28164C5.02801 3.05895 4.52805 2.94367 4.02156 2.94468C3.16201 2.9354 2.33393 3.26772 1.71928 3.86864C1.10463 4.46956 0.753673 5.28991 0.74353 6.14945C0.744134 6.91496 1.02266 7.6542 1.52733 8.2298C1.83963 8.58304 2.2236 8.86569 2.65367 9.05894C3.08375 9.25219 3.55006 9.3516 4.02156 9.35055C4.89273 9.35385 5.72994 9.01291 6.35096 8.40194C6.76479 7.99557 7.05986 7.48396 7.20435 6.92226ZM22.9107 11.2056C23.511 10.5908 23.8425 9.76287 23.8325 8.90373C23.8325 8.84879 23.8325 8.79019 23.8288 8.73525C23.8019 8.17426 23.6316 7.62952 23.3343 7.15301C23.0527 6.68793 22.6561 6.30314 22.1827 6.03566C21.7093 5.76818 21.1751 5.627 20.6314 5.62571C20.5261 5.6244 20.4208 5.63052 20.3164 5.64402C19.748 5.69908 19.2057 5.90941 18.7488 6.25201C18.3369 6.56027 18.0028 6.96062 17.7732 7.42105C17.5436 7.88149 17.4249 8.38923 17.4266 8.90373C17.426 9.26089 17.4828 9.61583 17.5951 9.9549C17.7717 10.4853 18.0791 10.9626 18.4887 11.343C19.0726 11.8812 19.8373 12.1805 20.6314 12.1818C21.4905 12.1714 22.3104 11.8203 22.9107 11.2056ZM11.9145 20.5984C11.9146 21.0385 11.828 21.4743 11.6596 21.881C11.4912 22.2876 11.2443 22.6571 10.9331 22.9683C10.6219 23.2795 10.2524 23.5264 9.84579 23.6947C9.43915 23.8631 9.00332 23.9497 8.5632 23.9496C8.00639 23.9502 7.45842 23.8104 6.96997 23.5431C6.46553 23.272 6.04021 22.8744 5.73568 22.3894C5.39194 21.8554 5.21005 21.2334 5.21193 20.5984C5.21217 20.3633 5.23671 20.1288 5.28517 19.8988C5.401 19.3547 5.65163 18.8485 6.01404 18.4264C6.32751 18.0562 6.71802 17.7588 7.15832 17.5551C7.59861 17.3514 8.07807 17.2463 8.5632 17.2471C9.0034 17.2467 9.43937 17.3331 9.84614 17.5014C10.2529 17.6697 10.6225 17.9165 10.9338 18.2278C11.245 18.5391 11.4919 18.9087 11.6602 19.3154C11.8284 19.7222 11.9149 20.1582 11.9145 20.5984ZM25.4011 27.698C26.0295 27.0552 26.377 26.1891 26.3671 25.2902C26.3684 24.9452 26.3178 24.602 26.217 24.272V24.2684C25.9599 23.4238 25.3865 22.7113 24.6164 22.2796C24.1267 22.0078 23.5759 21.8654 23.0159 21.8657H23.0085C22.2057 21.8737 21.4321 22.1681 20.8271 22.6959C20.2221 23.2237 19.8254 23.9502 19.7085 24.7445C19.6791 24.9249 19.6644 25.1074 19.6646 25.2902C19.6644 25.6829 19.73 26.0729 19.8587 26.4439C20.1038 27.1507 20.5749 27.757 21.1992 28.169C21.7371 28.5279 22.3693 28.7191 23.0159 28.7184C23.9148 28.7079 24.7727 28.3409 25.4011 27.698Z" fill="#55768B"/>
</svg>
