<svg width="34" height="31" viewBox="0 0 34 31" fill="none" xmlns="http://www.w3.org/2000/svg">
<path fill-rule="evenodd" clip-rule="evenodd" d="M18.6099 5.58406C18.6086 4.54758 18.7882 3.51881 19.1407 2.54411C19.1896 2.40361 19.2042 2.25346 19.1833 2.10617C19.1624 1.95887 19.1067 1.8187 19.0207 1.69731C18.9347 1.57591 18.821 1.47682 18.6889 1.40828C18.5569 1.33973 18.4104 1.30371 18.2616 1.30322C13.1849 1.2622 7.38959 1.30322 6.56405 1.39405C5.12947 1.48696 3.76641 2.05383 2.68902 3.0056C1.72209 3.97619 1.23498 5.26542 1.07382 6.88062C1.04452 7.07474 0.817441 9.04521 1.23498 9.46275C1.7221 10.111 2.36672 10.111 3.98192 10.111H19.8446C19.0347 8.74 18.6083 7.17644 18.6099 5.58406V5.58406ZM6.08022 7.67174C5.74284 7.66851 5.42015 7.53331 5.18123 7.29507C4.94231 7.05684 4.80618 6.73453 4.80198 6.39716C4.80552 6.05958 4.94143 5.73689 5.18049 5.49852C5.41955 5.26015 5.74264 5.12515 6.08022 5.12258C6.41723 5.12592 6.73948 5.26127 6.97779 5.49958C7.2161 5.73789 7.35146 6.06015 7.3548 6.39716C7.35081 6.73396 7.21524 7.05584 6.97707 7.29401C6.7389 7.53218 6.41702 7.66775 6.08022 7.67174V7.67174ZM9.80874 7.67174C9.47328 7.66779 9.15289 7.53177 8.91703 7.29318C8.68118 7.05459 8.54888 6.73265 8.54881 6.39716C8.54821 6.06147 8.6803 5.73914 8.9163 5.5004C9.15229 5.26167 9.47307 5.12586 9.80874 5.12258C10.1467 5.12277 10.4708 5.25712 10.7098 5.49611C10.9488 5.7351 11.0831 6.05918 11.0833 6.39716C11.0824 6.73493 10.9479 7.05862 10.709 7.29747C10.4702 7.53631 10.1465 7.67087 9.80874 7.67174V7.67174ZM13.5043 7.67174C13.1673 7.6684 12.845 7.53304 12.6067 7.29473C12.3684 7.05642 12.233 6.73416 12.2297 6.39716C12.2325 6.05998 12.3677 5.73739 12.6061 5.49896C12.8445 5.26053 13.1671 5.12535 13.5043 5.12258C13.8413 5.12592 14.1636 5.26127 14.4019 5.49958C14.6402 5.73789 14.7755 6.06015 14.7789 6.39716C14.7749 6.73396 14.6393 7.05584 14.4012 7.29401C14.163 7.53218 13.8411 7.66775 13.5043 7.67174V7.67174Z" fill="#55768B"/>
<path fill-rule="evenodd" clip-rule="evenodd" d="M31.7322 14.905C31.7323 14.7565 31.6969 14.6101 31.6291 14.4781C31.5612 14.346 31.4629 14.2319 31.3422 14.1454C31.2215 14.0589 31.0819 14.0024 30.935 13.9806C30.7882 13.9589 30.6382 13.9724 30.4976 14.0201C29.549 14.3528 28.5508 14.5221 27.5455 14.5208C25.4208 14.5255 23.3649 13.7678 21.7513 12.3855H2.10515C1.92707 12.3851 1.75068 12.4199 1.58609 12.4879C1.4215 12.5558 1.27195 12.6556 1.14604 12.7816C1.02012 12.9075 0.920332 13.057 0.852365 13.2216C0.784399 13.3862 0.749617 13.5626 0.750003 13.7407V18.6632C0.750003 21.0842 0.749982 23.0217 0.911136 24.4757C1.00463 25.9098 1.57293 27.2718 2.52635 28.3471C3.49328 29.3177 4.78618 29.8011 6.40138 29.9623C7.85177 30.1234 9.78928 30.1234 12.2103 30.1234H20.2826C22.7036 30.1234 24.6411 30.1234 26.0915 29.9623C27.5268 29.8698 28.8904 29.3014 29.9665 28.3471C30.9334 27.3802 31.4206 26.0909 31.5817 24.4757C31.7429 23.0217 31.7429 21.0842 31.7429 18.6632C31.7429 18.6632 31.7396 16.4385 31.7322 14.905ZM11.6792 19.5532L10.4192 22.6664C10.352 22.8455 10.2335 23.0008 10.0784 23.1129C9.92337 23.2249 9.73869 23.2888 9.54754 23.2964C9.35774 23.3042 9.16956 23.2586 9.00443 23.1647C8.8393 23.0708 8.70387 22.9324 8.61358 22.7653L8.03122 21.6519L7.52945 22.7323C7.44371 22.9056 7.31026 23.0507 7.14479 23.1506C6.97932 23.2506 6.78873 23.3011 6.59549 23.2964C6.40133 23.2917 6.21296 23.2293 6.05444 23.1171C5.89592 23.0049 5.77443 22.848 5.70548 22.6664L4.44555 19.5532C4.35149 19.3042 4.35817 19.0284 4.46417 18.7843C4.57017 18.5401 4.76712 18.3469 5.01325 18.2457C5.25919 18.152 5.53207 18.1586 5.77317 18.2641C6.01428 18.3696 6.20435 18.5655 6.30249 18.8097L6.70536 19.8279L7.0936 19.0038C7.17449 18.8361 7.30075 18.6943 7.45805 18.5947C7.61534 18.495 7.79741 18.4413 7.98363 18.4398C8.16884 18.433 8.35209 18.4795 8.51176 18.5736C8.67142 18.6677 8.80081 18.8055 8.88461 18.9708L9.38638 19.9231L9.82223 18.8097C9.92097 18.5651 10.1117 18.369 10.3535 18.2636C10.5952 18.1581 10.8687 18.1517 11.1151 18.2457C11.3614 18.3466 11.5583 18.54 11.6637 18.7844C11.7692 19.0288 11.7747 19.3048 11.6792 19.5532ZM19.7991 19.5532L18.5392 22.6664C18.4703 22.848 18.3488 23.0049 18.1902 23.1171C18.0317 23.2293 17.8434 23.2917 17.6492 23.2964C17.456 23.3011 17.2654 23.2506 17.0999 23.1506C16.9344 23.0507 16.801 22.9056 16.7152 22.7323L16.2135 21.6519L15.6348 22.7653C15.5433 22.9323 15.4072 23.0704 15.2415 23.1642C15.0759 23.2581 14.8874 23.3038 14.6971 23.2964C14.506 23.2888 14.3213 23.2249 14.1663 23.1129C14.0112 23.0008 13.8927 22.8455 13.8254 22.6664L12.5655 19.5532C12.47 19.3048 12.4755 19.0288 12.5809 18.7844C12.6864 18.54 12.8833 18.3466 13.1296 18.2457C13.376 18.1517 13.6495 18.1581 13.8912 18.2636C14.133 18.369 14.3237 18.5651 14.4225 18.8097L14.8583 19.9231L15.3601 18.9708C15.4439 18.8055 15.5733 18.6677 15.7329 18.5736C15.8926 18.4795 16.0759 18.433 16.2611 18.4398C16.4473 18.4413 16.6294 18.495 16.7867 18.5947C16.944 18.6943 17.0702 18.8361 17.1511 19.0038L17.5393 19.8279L17.9422 18.8097C18.0403 18.5655 18.2304 18.3696 18.4715 18.2641C18.7126 18.1586 18.9855 18.152 19.2314 18.2457C19.3546 18.2942 19.467 18.3665 19.5622 18.4585C19.6574 18.5505 19.7335 18.6604 19.7862 18.7818C19.839 18.9032 19.8672 19.0338 19.8694 19.1662C19.8717 19.2986 19.8478 19.4301 19.7991 19.5532V19.5532ZM28.0473 19.5532L26.7874 22.6664C26.7202 22.8455 26.6016 23.0008 26.4466 23.1129C26.2915 23.2249 26.1068 23.2888 25.9157 23.2964C25.7255 23.3038 25.5369 23.2581 25.3713 23.1642C25.2057 23.0704 25.0695 22.9323 24.9781 22.7653L24.414 21.6519L23.8976 22.7323C23.8111 22.9058 23.6769 23.0509 23.5109 23.1508C23.3448 23.2507 23.1537 23.3012 22.96 23.2964C22.7664 23.2911 22.5788 23.2284 22.421 23.1162C22.2632 23.004 22.1422 22.8475 22.0736 22.6664L20.8137 19.5532C20.7181 19.3048 20.7237 19.0288 20.8291 18.7844C20.9345 18.54 21.1315 18.3466 21.3777 18.2457C21.6242 18.1517 21.8976 18.1581 22.1394 18.2636C22.3811 18.369 22.5719 18.5651 22.6706 18.8097L23.0735 19.8279L23.4617 19.0038C23.5438 18.8377 23.6698 18.6973 23.826 18.5979C23.9823 18.4984 24.1629 18.4437 24.3481 18.4398C24.5339 18.4325 24.7179 18.4787 24.8782 18.5728C25.0386 18.6669 25.1685 18.8051 25.2527 18.9708L25.7545 19.9231L26.1904 18.8097C26.2885 18.5655 26.4786 18.3696 26.7197 18.2641C26.9608 18.1586 27.2337 18.152 27.4796 18.2457C27.7257 18.3469 27.9227 18.5401 28.0287 18.7843C28.1347 19.0284 28.1414 19.3042 28.0473 19.5532V19.5532Z" fill="#55768B"/>
<path opacity="0.4" d="M24.4806 6.62417C24.4783 6.58048 24.4594 6.53932 24.4278 6.50905C24.3963 6.47877 24.3543 6.46165 24.3106 6.46115H21.9544C21.9292 6.46116 21.9043 6.46664 21.8814 6.4772C21.8585 6.48777 21.8382 6.50318 21.8218 6.52236C21.8054 6.54155 21.7934 6.56405 21.7866 6.58833C21.7797 6.6126 21.7782 6.63807 21.7822 6.66298C21.9565 7.66826 22.3804 8.6137 23.015 9.41261C23.6496 10.2115 24.4746 10.8383 25.4144 11.2356C25.4483 11.2496 25.4857 11.2525 25.5213 11.2438C25.5569 11.2352 25.5889 11.2155 25.6127 11.1876C25.6364 11.1597 25.6507 11.125 25.6534 11.0884C25.6562 11.0519 25.6473 11.0154 25.628 10.9842C25.0299 9.99244 24.5952 8.53009 24.4806 6.62417Z" fill="#55768B"/>
<path opacity="0.4" d="M28.9921 6.46115H25.9694C25.9446 6.46262 25.9203 6.4691 25.898 6.4802C25.8757 6.4913 25.8559 6.5068 25.8397 6.52575C25.8235 6.54471 25.8114 6.56673 25.8039 6.5905C25.7965 6.61428 25.794 6.63931 25.7965 6.66409C25.995 9.53444 26.9424 11.25 27.4806 11.25C28.0188 11.25 28.9666 9.53444 29.1647 6.66409C29.1672 6.63933 29.1647 6.61434 29.1573 6.59059C29.1498 6.56684 29.1377 6.54482 29.1216 6.52588C29.1055 6.50693 29.0857 6.49143 29.0634 6.48031C29.0412 6.46918 29.0169 6.46267 28.9921 6.46115V6.46115Z" fill="#55768B"/>
<path opacity="0.4" d="M32.8701 6.46115H30.6504C30.6066 6.46165 30.5647 6.47877 30.5331 6.50905C30.5015 6.53932 30.4827 6.58048 30.4803 6.62417C30.4443 8.11586 30.0679 9.5796 29.3799 10.9036C29.361 10.9353 29.3526 10.9722 29.3561 11.009C29.3596 11.0457 29.3747 11.0804 29.3992 11.108C29.4237 11.1356 29.4563 11.1546 29.4924 11.1624C29.5285 11.1702 29.5661 11.1663 29.5998 11.1513C30.4942 10.7378 31.2749 10.1133 31.8745 9.33141C32.4742 8.54952 32.875 7.63366 33.0424 6.66261C33.0462 6.63774 33.0446 6.61233 33.0378 6.58813C33.0309 6.56393 33.0188 6.54149 33.0025 6.52237C32.9861 6.50324 32.9658 6.48787 32.943 6.47731C32.9202 6.46674 32.8953 6.46123 32.8701 6.46115V6.46115Z" fill="#55768B"/>
<path opacity="0.4" d="M25.4144 0.0164762C24.4748 0.412993 23.6498 1.03917 23.0152 1.83753C22.3805 2.6359 21.9566 3.58088 21.7822 4.58575C21.7784 4.61063 21.7799 4.63606 21.7868 4.66029C21.7936 4.68452 21.8056 4.70698 21.822 4.72612C21.8384 4.74526 21.8587 4.76063 21.8816 4.77118C21.9044 4.78172 21.9293 4.78719 21.9545 4.78721H24.3121C24.3559 4.7868 24.3978 4.76976 24.4294 4.73954C24.4609 4.70933 24.4798 4.66821 24.4822 4.62456C24.5968 2.72159 25.0315 1.26073 25.6281 0.268209C25.6473 0.237002 25.656 0.200545 25.6532 0.164042C25.6504 0.127538 25.6362 0.0928571 25.6125 0.0649446C25.5888 0.037032 25.5569 0.0173171 25.5213 0.00861343C25.4858 -9.02227e-05 25.4484 0.00265996 25.4144 0.0164762V0.0164762Z" fill="#55768B"/>
<path opacity="0.4" d="M25.9697 4.78663H28.9916C29.0164 4.78511 29.0407 4.77859 29.063 4.76747C29.0852 4.75635 29.105 4.74085 29.1211 4.7219C29.1372 4.70295 29.1494 4.68094 29.1568 4.65719C29.1642 4.63344 29.1667 4.60844 29.1642 4.58368C28.9628 1.71592 28.0183 0 27.4805 0C26.9426 0 25.9982 1.71444 25.7967 4.58368C25.7942 4.60847 25.7968 4.6335 25.8042 4.65727C25.8116 4.68104 25.8238 4.70307 25.84 4.72203C25.8561 4.74098 25.8759 4.75647 25.8982 4.76757C25.9205 4.77868 25.9448 4.78516 25.9697 4.78663V4.78663Z" fill="#55768B"/>
<path opacity="0.4" d="M30.4806 4.62396C30.483 4.66758 30.5019 4.70864 30.5335 4.73884C30.5651 4.76903 30.6069 4.78611 30.6506 4.78661H32.8685C32.8937 4.78659 32.9186 4.78112 32.9415 4.77058C32.9644 4.76003 32.9847 4.74465 33.001 4.72551C33.0174 4.70637 33.0294 4.68391 33.0363 4.65968C33.0432 4.63545 33.0447 4.61003 33.0408 4.58515C32.8721 3.61452 32.4706 2.69929 31.8705 1.91794C31.2705 1.1366 30.4899 0.512457 29.5957 0.0990465C29.5624 0.0837893 29.5252 0.0795303 29.4894 0.0868913C29.4535 0.0942524 29.421 0.112846 29.3964 0.139974C29.3719 0.167101 29.3567 0.201346 29.3529 0.237728C29.3492 0.27411 29.3572 0.310733 29.3757 0.342274C30.0664 1.66632 30.4443 3.13105 30.4806 4.62396V4.62396Z" fill="#55768B"/>
</svg>
