<svg width="34" height="31" viewBox="0 0 34 31" fill="none" xmlns="http://www.w3.org/2000/svg">
<path fill-rule="evenodd" clip-rule="evenodd" d="M28.9469 1.94117C27.0057 -4.5408e-06 23.9027 0 17.662 0H13.9921C7.75143 0 4.63127 -4.5408e-06 2.69119 1.94117C0.751117 3.88235 0.75 7.00141 0.75 13.2421V15.5701C0.75 21.8107 0.750018 24.9309 2.69119 26.871C4.27563 28.4554 6.66839 28.7466 10.9203 28.7949H10.9364C12.0352 28.7949 12.7794 27.5339 12.7794 26.4344C12.7667 25.227 13.223 24.0618 14.0524 23.1843C14.8817 22.3067 16.0193 21.7852 17.2255 21.7298C17.2699 21.7261 17.3112 21.7057 17.3412 21.6728C17.3711 21.6398 17.3875 21.5967 17.387 21.5522C17.3723 20.6219 17.5423 19.698 17.8871 18.8338C18.2319 17.9697 18.7447 17.1825 19.3958 16.5179C20.0469 15.8533 20.8233 15.3245 21.6802 14.962C22.537 14.5995 23.4573 14.4105 24.3877 14.4061C26.0947 14.4279 27.7366 15.0652 29.0113 16.2008C29.2015 16.3583 29.4437 16.4391 29.6904 16.4271C30.2562 16.4271 30.8869 16.0876 30.8869 15.5701V13.2421C30.8869 7.00068 30.8869 3.88125 28.9469 1.94117ZM8.78757 24.0903H6.65227C6.34819 24.0892 6.05692 23.9679 5.84191 23.7529C5.62689 23.5379 5.50558 23.2466 5.50442 22.9425C5.50359 22.7915 5.53271 22.6419 5.59011 22.5022C5.6475 22.3626 5.73203 22.2357 5.83878 22.129C5.94553 22.0222 6.0724 21.9377 6.21204 21.8803C6.35167 21.8229 6.5013 21.7938 6.65227 21.7946H8.78757C8.93854 21.7938 9.08818 21.8229 9.22782 21.8803C9.36746 21.9377 9.49432 22.0222 9.60108 22.129C9.70783 22.2357 9.79233 22.3626 9.84973 22.5022C9.90712 22.6419 9.93626 22.7915 9.93543 22.9425C9.93428 23.2466 9.81296 23.5379 9.59795 23.7529C9.38293 23.9679 9.09164 24.0892 8.78757 24.0903V24.0903ZM12.0052 19.7575H6.65227C6.34845 19.7563 6.0574 19.6352 5.84242 19.4205C5.62745 19.2058 5.50596 18.9149 5.50442 18.6111C5.50548 18.307 5.62676 18.0157 5.8418 17.8006C6.05683 17.5856 6.34816 17.4643 6.65227 17.4632H12.0037C12.1555 17.4622 12.306 17.491 12.4467 17.5481C12.5873 17.6053 12.7153 17.6895 12.8234 17.7961C12.9315 17.9027 13.0175 18.0295 13.0766 18.1694C13.1357 18.3092 13.1666 18.4593 13.1677 18.6111C13.1651 18.9174 13.0411 19.2102 12.8229 19.4252C12.6047 19.6401 12.31 19.7596 12.0037 19.7575H12.0052ZM9.6611 13.808C8.46901 13.7994 7.32916 13.3176 6.49223 12.4687C5.6553 11.6197 5.18984 10.4731 5.19823 9.28101C5.19158 8.16678 5.5975 7.0895 6.33778 6.25671C7.07806 5.42391 8.10034 4.89452 9.20768 4.77053C9.26691 4.76587 9.32645 4.77382 9.38238 4.79387C9.43831 4.81391 9.48935 4.8456 9.53213 4.88682C9.57492 4.92805 9.60846 4.97788 9.63056 5.03303C9.65267 5.08817 9.66282 5.14738 9.66036 5.20674V8.84443C9.66072 8.90303 9.6728 8.96096 9.69588 9.01482C9.71896 9.06868 9.7526 9.11738 9.79478 9.15806C9.83696 9.19874 9.88683 9.23057 9.94149 9.25168C9.99615 9.2728 10.0545 9.28277 10.1131 9.28101H13.6698C13.7284 9.27887 13.7868 9.28937 13.8409 9.31182C13.8951 9.33426 13.9438 9.36812 13.9837 9.41108C14.0236 9.45404 14.0538 9.5051 14.0722 9.56078C14.0906 9.61645 14.0967 9.67543 14.0903 9.73371C13.9905 10.8422 13.4813 11.8737 12.662 12.627C11.8427 13.3803 10.7722 13.8014 9.65927 13.808H9.6611ZM14.1232 8.02108H11.2939C11.2353 8.02071 11.1774 8.00864 11.1235 7.98556C11.0696 7.96248 11.0209 7.92886 10.9802 7.88668C10.9396 7.8445 10.9077 7.79461 10.8866 7.73995C10.8655 7.68528 10.8555 7.62696 10.8573 7.56839V4.75551C10.8546 4.69818 10.8642 4.64094 10.8854 4.58762C10.9066 4.53429 10.9389 4.4861 10.9803 4.44629C11.0216 4.40648 11.071 4.37596 11.125 4.35677C11.1791 4.33759 11.2367 4.33018 11.2939 4.33505C12.1167 4.43507 12.8823 4.80788 13.4684 5.39395C14.0546 5.98003 14.4275 6.74558 14.5276 7.56839C14.5357 7.62571 14.5312 7.68412 14.5143 7.7395C14.4974 7.79489 14.4686 7.84589 14.4298 7.88894C14.3911 7.93199 14.3434 7.96603 14.2902 7.98867C14.2369 8.01131 14.1793 8.02199 14.1214 8.01998L14.1232 8.02108ZM25.5696 10.4139H20.3614C20.0573 10.4127 19.7659 10.2914 19.5509 10.0764C19.3358 9.86139 19.2144 9.5701 19.2132 9.266C19.2144 8.96189 19.3358 8.6706 19.5509 8.45559C19.7659 8.24059 20.0573 8.11929 20.3614 8.11814H25.567C25.8711 8.1193 26.1624 8.2406 26.3774 8.45562C26.5924 8.67063 26.7137 8.96192 26.7149 9.266C26.7134 9.56975 26.5921 9.86065 26.3773 10.0754C26.1624 10.2902 25.8715 10.4114 25.5677 10.4128L25.5696 10.4139ZM25.5696 6.16194H20.3614C20.0573 6.16079 19.7659 6.03949 19.5509 5.82449C19.3358 5.60949 19.2144 5.3182 19.2132 5.01409C19.2143 4.70995 19.3357 4.41861 19.5508 4.20358C19.7658 3.98856 20.0572 3.8673 20.3614 3.86623H25.567C25.8711 3.8673 26.1625 3.98857 26.3775 4.20361C26.5925 4.41864 26.7138 4.70999 26.7149 5.01409C26.7134 5.31785 26.5921 5.60874 26.3773 5.8235C26.1624 6.03826 25.8715 6.1595 25.5677 6.16085L25.5696 6.16194Z" fill="#55768B"/>
<path opacity="0.4" fill-rule="evenodd" clip-rule="evenodd" d="M33.8529 26.4249C33.847 27.5366 33.4085 28.6023 32.6302 29.3961C31.8519 30.1899 30.7951 30.6494 29.6838 30.6772L19.8808 30.4475C19.0057 30.4382 18.1701 30.0819 17.5575 29.457C16.9448 28.8321 16.6051 27.9897 16.6131 27.1146C16.6052 26.2591 16.9293 25.4338 17.5173 24.8123C18.1052 24.1907 18.9112 23.8213 19.7658 23.7816C19.7964 23.7808 19.8254 23.7681 19.8468 23.7463C19.8683 23.7246 19.8805 23.6953 19.8808 23.6648C19.8712 23.0065 19.9922 22.3529 20.2368 21.7417C20.4813 21.1305 20.8446 20.5739 21.3056 20.1039C21.7666 19.634 22.3162 19.2601 22.9226 19.0039C23.529 18.7476 24.1802 18.6142 24.8385 18.6111C25.8498 18.6342 26.8316 18.9555 27.6609 19.5347C28.4902 20.1138 29.13 20.925 29.4999 21.8664C29.5497 21.9928 29.5479 22.1741 29.683 22.1741C30.2363 22.1783 30.7832 22.2917 31.2925 22.5078C31.8018 22.7239 32.2634 23.0385 32.6508 23.4334C33.0383 23.8284 33.3439 24.296 33.5502 24.8093C33.7564 25.3227 33.8593 25.8717 33.8529 26.4249V26.4249Z" fill="#55768B"/>
</svg>
