<svg width="30" height="30" viewBox="0 0 30 30" fill="none" xmlns="http://www.w3.org/2000/svg">
<path fill-rule="evenodd" clip-rule="evenodd" d="M6.64029 0.266052H22.763C23.6349 0.265524 24.4983 0.436796 25.3039 0.770085C26.1096 1.10337 26.8416 1.59215 27.4583 2.20847C28.075 2.8248 28.5641 3.55659 28.8979 4.36204C29.2316 5.1675 29.4034 6.03082 29.4033 6.90267V22.5566C29.4034 23.4285 29.2316 24.2918 28.8979 25.0972C28.5641 25.9027 28.075 26.6345 27.4583 27.2508C26.8416 27.8671 26.1096 28.3559 25.3039 28.6892C24.4983 29.0225 23.6349 29.1938 22.763 29.1932H6.64029C5.76843 29.1938 4.90502 29.0225 4.09938 28.6892C3.29375 28.3559 2.56168 27.8671 1.94502 27.2508C1.32835 26.6345 0.839173 25.9027 0.50544 25.0972C0.171706 24.2918 -4.82688e-05 23.4285 0 22.5566V6.90267C-4.82688e-05 6.03082 0.171706 5.1675 0.50544 4.36204C0.839173 3.55659 1.32835 2.8248 1.94502 2.20847C2.56168 1.59215 3.29375 1.10337 4.09938 0.770085C4.90502 0.436796 5.76843 0.265524 6.64029 0.266052ZM21.5177 12.8001C21.9496 12.6209 22.3417 12.3581 22.6715 12.0266C23.0023 11.6974 23.2646 11.3058 23.4432 10.8745C23.6217 10.4433 23.7129 9.98087 23.7116 9.5141C23.7122 9.04675 23.6206 8.58388 23.4421 8.15195C23.2636 7.72003 23.0017 7.32752 22.6714 6.99689C22.3411 6.66625 21.9489 6.40396 21.5171 6.22502C21.0854 6.04609 20.6226 5.95401 20.1553 5.95406C19.6878 5.95376 19.2248 6.04582 18.793 6.22495C18.3612 6.40408 17.9691 6.66676 17.6391 6.9979C17.3088 7.32837 17.047 7.7207 16.8685 8.15246C16.69 8.58421 16.5984 9.04692 16.5989 9.5141C16.5984 9.98075 16.6901 10.4429 16.8686 10.874C17.0471 11.3052 17.3089 11.6969 17.6391 12.0266C17.9691 12.3578 18.3612 12.6205 18.793 12.7996C19.2248 12.9787 19.6878 13.0708 20.1553 13.0705C20.6228 13.0711 21.0859 12.9792 21.5177 12.8001ZM9.24779 5.95612C11.2123 5.95612 12.8049 7.54869 12.8049 9.51323C12.8049 11.4778 11.2123 13.0703 9.24779 13.0703C7.28325 13.0703 5.69067 11.4778 5.69067 9.51323C5.69067 7.54869 7.28325 5.95612 9.24779 5.95612ZM9.24779 16.8644C11.2123 16.8644 12.8049 18.457 12.8049 20.4216C12.8049 22.3861 11.2123 23.9787 9.24779 23.9787C7.28325 23.9787 5.69067 22.3861 5.69067 20.4216C5.69067 18.457 7.28325 16.8644 9.24779 16.8644ZM23.7132 20.4216C23.7132 18.457 22.1206 16.8644 20.1561 16.8644C18.1916 16.8644 16.599 18.457 16.599 20.4216C16.599 22.3861 18.1916 23.9787 20.1561 23.9787C22.1206 23.9787 23.7132 22.3861 23.7132 20.4216Z" fill="#55768B"/>
<path opacity="0.4" fill-rule="evenodd" clip-rule="evenodd" d="M12.8047 9.51457C12.8047 7.55003 11.2121 5.95746 9.24754 5.95746C7.283 5.95746 5.69043 7.55003 5.69043 9.51457C5.69043 11.4791 7.283 13.0717 9.24754 13.0717C11.2121 13.0717 12.8047 11.4791 12.8047 9.51457ZM12.8047 20.4229C12.8047 18.4584 11.2121 16.8658 9.24754 16.8658C7.283 16.8658 5.69043 18.4584 5.69043 20.4229C5.69043 22.3874 7.283 23.98 9.24754 23.98C11.2121 23.98 12.8047 22.3874 12.8047 20.4229ZM20.1559 16.8658C22.1204 16.8658 23.713 18.4584 23.713 20.4229C23.713 22.3874 22.1204 23.98 20.1559 23.98C18.1913 23.98 16.5988 22.3874 16.5988 20.4229C16.5988 18.4584 18.1913 16.8658 20.1559 16.8658Z" fill="#55768B"/>
</svg>
