<svg width="36" height="31" viewBox="0 0 36 31" fill="none" xmlns="http://www.w3.org/2000/svg">
<path d="M30.3911 5.45361C30.2801 4.08656 29.7074 2.79791 28.7671 1.79943C27.7925 0.824818 26.4934 0.419004 25.0313 0.175075C23.3846 0.0269073 21.7308 -0.027268 20.078 0.012819H10.9816C9.32874 -0.0256892 7.67505 0.0284832 6.02828 0.175075C4.66116 0.286506 3.37251 0.859282 2.37375 1.79943C1.31819 2.85499 0.912374 4.07318 0.749754 5.45361C0.506192 7.48378 0.587493 9.43265 0.587493 11.4628C0.594967 11.9774 0.802693 12.4687 1.16657 12.8326C1.53044 13.1965 2.02182 13.4042 2.53636 13.4117H28.6034C29.118 13.4042 29.6093 13.1965 29.9732 12.8326C30.3371 12.4687 30.5448 11.9774 30.5523 11.4628C30.6623 9.45871 30.6084 7.44895 30.3911 5.45361V5.45361ZM7.65374 8.45693C7.45109 8.45708 7.25041 8.41728 7.06316 8.33981C6.87591 8.26233 6.70576 8.14871 6.56245 8.00544C6.41914 7.86216 6.30547 7.69204 6.22795 7.50481C6.15044 7.31757 6.11059 7.11689 6.11069 6.91425C6.11055 6.71157 6.15036 6.51085 6.22785 6.32357C6.30535 6.1363 6.419 5.96614 6.56231 5.82282C6.70563 5.67951 6.87579 5.56585 7.06307 5.48836C7.25035 5.41086 7.45106 5.37105 7.65374 5.3712C7.85641 5.37105 8.05714 5.41086 8.24441 5.48836C8.43169 5.56585 8.60185 5.67951 8.74516 5.82282C8.88847 5.96614 9.00214 6.1363 9.07963 6.32357C9.15712 6.51085 9.19694 6.71157 9.19679 6.91425C9.19703 7.11699 9.15729 7.31778 9.07984 7.50514C9.00239 7.6925 8.88875 7.86275 8.74543 8.00615C8.6021 8.14954 8.43191 8.26326 8.24458 8.3408C8.05726 8.41834 7.85647 8.45817 7.65374 8.45803V8.45693ZM20.2406 7.89143C20.243 8.06273 20.211 8.23278 20.1465 8.39151C20.082 8.55024 19.9864 8.69443 19.8653 8.81558C19.7441 8.93672 19.5999 9.03235 19.4412 9.09682C19.2825 9.16129 19.1124 9.19328 18.9411 9.19092C18.7699 9.19323 18.5998 9.1612 18.4412 9.09671C18.2825 9.03222 18.1383 8.93658 18.0172 8.81544C17.8961 8.6943 17.8005 8.55012 17.7361 8.39142C17.6716 8.23271 17.6396 8.0627 17.642 7.89143V6.18613C17.6397 6.01488 17.6717 5.84491 17.7362 5.68625C17.8006 5.52758 17.8962 5.38344 18.0173 5.26235C18.1384 5.14125 18.2826 5.04564 18.4412 4.98117C18.5999 4.91671 18.7699 4.88468 18.9411 4.887C19.1124 4.88463 19.2824 4.91662 19.4411 4.98107C19.5998 5.04551 19.744 5.14111 19.8651 5.26221C19.9863 5.38332 20.0819 5.52747 20.1464 5.68616C20.2109 5.84484 20.2429 6.01485 20.2406 6.18613V7.89143ZM24.301 7.89143C24.3033 8.06273 24.2713 8.23278 24.2069 8.39151C24.1424 8.55024 24.0468 8.69443 23.9256 8.81558C23.8045 8.93672 23.6603 9.03235 23.5016 9.09682C23.3428 9.16129 23.1728 9.19328 23.0015 9.19092C22.8302 9.19323 22.6602 9.1612 22.5015 9.09671C22.3428 9.03222 22.1987 8.93658 22.0776 8.81544C21.9565 8.6943 21.8609 8.55012 21.7964 8.39142C21.732 8.23271 21.7 8.0627 21.7024 7.89143V6.18613C21.6932 6.01312 21.7206 5.84013 21.7826 5.67838C21.8447 5.51663 21.9401 5.36974 22.0626 5.24723C22.1851 5.12473 22.332 5.02935 22.4937 4.96729C22.6555 4.90523 22.8285 4.87788 23.0015 4.887C23.1728 4.88463 23.3428 4.91662 23.5015 4.98107C23.6602 5.04551 23.8043 5.14111 23.9255 5.26221C24.0466 5.38332 24.1423 5.52747 24.2068 5.68616C24.2712 5.84484 24.3033 6.01485 24.301 6.18613V7.89143Z" fill="#55768B"/>
<path d="M19.0214 15.8802H2.53682C2.0095 15.8706 1.49983 16.0702 1.11936 16.4355C0.738877 16.8007 0.51857 17.3018 0.506647 17.8291C0.506647 19.8593 0.425335 21.8081 0.831516 23.8383C0.94267 25.2053 1.51534 26.4939 2.45551 27.4925C3.43012 28.5484 4.72925 28.9542 6.10969 29.1168C7.75648 29.265 9.41038 29.3192 11.0633 29.2791H13.4997C13.6825 29.2756 13.8619 29.2284 14.0228 29.1415C14.1837 29.0546 14.3216 28.9306 14.4248 28.7796C14.5281 28.6287 14.5938 28.4553 14.6165 28.2738C14.6392 28.0924 14.6182 27.9081 14.5553 27.7364C14.3955 27.2655 14.3132 26.7719 14.3117 26.2747C14.3117 22.8641 17.2348 21.9707 18.453 21.6459C18.5504 21.6133 18.7779 21.5646 18.7779 21.5646C18.7779 20.1841 19.3463 18.8037 19.996 17.6668C20.1076 17.4915 20.1701 17.2895 20.1771 17.0818C20.1841 16.8742 20.1353 16.6684 20.0358 16.486C19.9363 16.3036 19.7897 16.1512 19.6113 16.0446C19.4329 15.9381 19.2292 15.8813 19.0214 15.8802V15.8802ZM7.65273 23.9196C7.23514 23.9019 6.84079 23.7226 6.55289 23.4196C6.26499 23.1166 6.10608 22.7136 6.10969 22.2956C6.10954 22.0929 6.14935 21.8922 6.22685 21.7049C6.30434 21.5177 6.41799 21.3475 6.56131 21.2042C6.70462 21.0609 6.87479 20.9472 7.06206 20.8697C7.24934 20.7922 7.45005 20.7524 7.65273 20.7526C8.07032 20.7703 8.46468 20.9496 8.75258 21.2526C9.04048 21.5556 9.19939 21.9586 9.19579 22.3766C9.19593 22.5792 9.15612 22.78 9.07862 22.9672C9.00113 23.1545 8.88747 23.3247 8.74415 23.468C8.60084 23.6113 8.43068 23.725 8.24341 23.8024C8.05613 23.8799 7.85541 23.9198 7.65273 23.9196V23.9196Z" fill="#55768B"/>
<path opacity="0.4" d="M30.752 22.0444C30.6158 22.0469 30.6139 21.8653 30.5623 21.7393C30.1725 20.8009 29.5144 19.9985 28.6704 19.4326C27.8265 18.8667 26.8342 18.5626 25.8181 18.5583C25.1566 18.5738 24.5048 18.7203 23.9003 18.9893C23.2958 19.2584 22.7506 19.6447 22.2965 20.1259C21.8423 20.6071 21.488 21.1735 21.2542 21.7926C21.0204 22.4116 20.9117 23.0708 20.9344 23.7321C20.9349 23.7629 20.9233 23.7927 20.9021 23.8151C20.8809 23.8375 20.8517 23.8507 20.8209 23.8518C19.9637 23.9083 19.1617 24.2946 18.5833 24.9297C18.0048 25.5648 17.6949 26.3993 17.7187 27.2581C17.7275 28.1372 18.0847 28.9768 18.712 29.5928C19.3393 30.2087 20.1854 30.5506 21.0645 30.5434L30.9146 30.587C32.0303 30.5378 33.0829 30.056 33.8494 29.2438C34.6159 28.4316 35.0359 27.3528 35.0204 26.2362C35.0165 25.6804 34.9029 25.1308 34.6861 24.6189C34.4693 24.1071 34.1535 23.6431 33.7569 23.2537C33.3603 22.8642 32.8907 22.5569 32.3751 22.3493C31.8594 22.1418 31.3078 22.0382 30.752 22.0444V22.0444Z" fill="#55768B"/>
</svg>
