<svg width="28" height="33" viewBox="0 0 28 33" fill="none" xmlns="http://www.w3.org/2000/svg">
<path fill-rule="evenodd" clip-rule="evenodd" d="M11.8488 10.5108C11.4507 10.3112 10.9929 10.2655 10.5632 10.3826C10.1975 10.5511 9.90435 10.8452 9.73701 11.2115C9.56967 11.5778 9.53923 11.9919 9.65123 12.3787L10.0431 13.9133C10.0537 13.9092 10.0648 13.9067 10.0761 13.906L12.8304 13.1991C12.8816 13.1845 12.9366 13.1698 12.9879 13.1588L12.563 11.5034C12.5198 11.2972 12.4339 11.1025 12.3109 10.9315C12.1879 10.7606 12.0305 10.6173 11.8488 10.5108V10.5108Z" fill="#55768B"/>
<path fill-rule="evenodd" clip-rule="evenodd" d="M26.5614 13.7888C26.0583 13.8739 25.5422 13.8375 25.0561 13.6826C24.6019 13.5544 24.0635 13.3457 23.4409 13.1039L20.7928 12.0784C20.1702 11.8367 19.6318 11.6279 19.2106 11.4155C18.7472 11.2016 18.3416 10.8801 18.0276 10.4778C17.7569 10.1089 17.5706 9.68507 17.4818 9.23623C17.3954 8.73346 17.4306 8.21731 17.5844 7.7309C17.7126 7.27308 17.9213 6.73834 18.1631 6.1157L18.1997 6.02414C18.4414 5.4015 18.6465 4.86309 18.8626 4.4419C19.0739 3.97794 19.3943 3.57204 19.7966 3.25888C20.0647 3.06228 20.3628 2.91016 20.6793 2.80838C20.3533 2.68752 20.0127 2.56299 19.6537 2.43114L18.0642 1.84878C18.0019 1.8268 17.9433 1.80483 17.8847 1.78285C16.1743 1.15655 15.0682 0.75 13.8998 0.75C12.7314 0.75 11.6253 1.15655 9.91124 1.78285C9.85264 1.80483 9.79404 1.8268 9.73178 1.84878L8.14587 2.43114C6.7439 2.90964 5.36739 3.45975 4.02179 4.0793C2.99932 4.53526 2.11137 5.24664 1.44333 6.14501C0.829409 7.08105 0.467355 8.15964 0.392161 9.27652C0.271913 10.753 0.227904 12.2346 0.260308 13.7156V18.2059C0.260308 19.7149 0.260307 20.9199 0.355534 21.9051C0.415999 22.8505 0.680921 23.7715 1.13201 24.6045C1.62207 25.4141 2.28337 26.1067 3.06952 26.6336C3.87162 27.2159 4.91547 27.8239 6.21569 28.5821L7.83821 29.5307C9.16041 30.3035 10.2189 30.9225 11.1345 31.34C11.9932 31.7739 12.938 32.0104 13.8998 32.0322C14.8604 32.01 15.8039 31.7735 16.6614 31.34C17.5771 30.9225 18.6355 30.3035 19.9577 29.5307L21.5803 28.5821C22.8842 27.8239 23.9243 27.2159 24.7264 26.6336C25.5126 26.1066 26.1739 25.4141 26.6639 24.6045C27.1167 23.7722 27.3817 22.8508 27.4404 21.9051C27.5356 20.9199 27.5356 19.7149 27.5356 18.2059V13.4153C27.2337 13.5926 26.9045 13.7188 26.5614 13.7888V13.7888ZM18.7711 19.7882C18.6279 20.2233 18.3917 20.622 18.0788 20.9565C17.7202 21.3198 17.2792 21.5912 16.7933 21.7477C16.3501 21.9088 15.7934 22.0516 15.1451 22.2165L12.3908 22.9233C11.7462 23.0918 11.1858 23.2347 10.7207 23.3043C10.2204 23.4023 9.70376 23.3771 9.21535 23.231C8.77908 23.0898 8.37903 22.8548 8.04332 22.5424C7.68136 22.1834 7.41125 21.7424 7.25586 21.2569C7.09471 20.81 6.95187 20.2533 6.78339 19.605L6.76141 19.5135C6.59293 18.8652 6.45009 18.3085 6.37684 17.8397C6.28249 17.3391 6.30759 16.8234 6.45009 16.3343C6.59325 15.8992 6.82947 15.5005 7.14232 15.166C7.40249 14.8943 7.71363 14.6765 8.05797 14.525L7.64043 12.8952C7.39621 11.9994 7.49328 11.0448 7.91284 10.2165C8.3324 9.38823 9.04455 8.74522 9.91124 8.41215C9.94003 8.40192 9.96938 8.39336 9.99915 8.38651C10.9757 8.11452 12.02 8.23684 12.9072 8.72713C13.3235 8.97135 13.6859 9.29759 13.9724 9.68604C14.2588 10.0745 14.4634 10.5171 14.5737 10.987L15.0279 12.7633C15.3601 12.7465 15.6927 12.7899 16.0095 12.8915C16.4444 13.0333 16.8431 13.2683 17.1778 13.5801C17.5396 13.9399 17.8107 14.3805 17.969 14.8656C18.1301 15.3125 18.2729 15.8692 18.4378 16.5175L18.4634 16.609C18.6282 17.2573 18.7711 17.814 18.8443 18.2828C18.9405 18.7833 18.9154 19.2994 18.7711 19.7882V19.7882Z" fill="#55768B"/>
<path opacity="0.4" fill-rule="evenodd" clip-rule="evenodd" d="M26.1127 2.08939C26.0944 2.08255 26.0757 2.07633 26.0567 2.07071C25.4927 1.92425 24.8945 1.9923 24.3779 2.26167C23.8613 2.53105 23.463 2.98257 23.2603 3.52879L22.8783 4.5133C22.6479 4.46457 22.4101 4.46183 22.1787 4.50524C21.8967 4.56172 21.6305 4.67909 21.3986 4.84916C21.1467 5.04589 20.9457 5.30025 20.8126 5.59083C20.6789 5.85564 20.5481 6.1926 20.3965 6.58339L20.3745 6.64016C20.2225 7.03133 20.0921 7.36792 20.0123 7.6536C19.9135 7.95854 19.8897 8.28284 19.9431 8.59892C19.9992 8.88089 20.1166 9.14709 20.287 9.37869C20.4834 9.63086 20.7379 9.8319 21.0286 9.96471C21.2935 10.0988 21.63 10.2291 22.0208 10.3811L23.6837 11.0261C24.0745 11.1778 24.4114 11.3085 24.6971 11.3884C25.0018 11.4858 25.3256 11.5086 25.641 11.4546C25.9229 11.3984 26.1891 11.281 26.4207 11.1107C26.6727 10.9141 26.8737 10.6597 27.0067 10.3691C27.1404 10.1042 27.2712 9.76766 27.4228 9.37649L27.4448 9.31972C27.5964 8.92856 27.7272 8.59197 27.807 8.30628C27.9047 8.00157 27.9274 7.6778 27.8733 7.36243C27.817 7.0804 27.6996 6.81412 27.5294 6.5823C27.4047 6.41555 27.2511 6.27251 27.076 6.16L27.492 5.08759C27.6072 4.80728 27.6645 4.50653 27.6603 4.2035C27.656 3.90046 27.5905 3.60142 27.4675 3.32442C27.1946 2.75152 26.7083 2.30821 26.1127 2.08939ZM25.8929 5.61574L26.2804 4.61695C26.334 4.49627 26.3617 4.3657 26.3617 4.23366C26.3617 4.10162 26.334 3.97105 26.2804 3.85037C26.1516 3.60227 25.9346 3.41137 25.6721 3.31526C25.4238 3.26734 25.1665 3.31006 24.947 3.43567C24.7275 3.56128 24.5604 3.76144 24.4759 3.9998L24.1166 4.9257L24.1375 4.93413L25.7999 5.57911L25.8929 5.61574Z" fill="#55768B"/>
</svg>
